<svg width="16" height="16" viewBox="0 0 16 16" fill="none" xmlns="http://www.w3.org/2000/svg">
<path d="M11.207 2.00076L11.2169 2.50066L11.207 2.00076ZM8.9547 2.87919L8.61703 2.51043L8.9547 2.87919ZM8 6.01074L7.5 6.01092C7.5001 6.28698 7.72391 6.51072 7.99997 6.51074C8.27603 6.51076 8.49987 6.28704 8.5 6.01098L8 6.01074ZM7.04561 2.87919L7.38329 2.51045V2.51045L7.04561 2.87919ZM4.79296 2.00076L4.78313 2.50066L4.79296 2.00076ZM1.00282 6.01074H1.50282V6.00107L1.50245 5.99141L1.00282 6.01074ZM6.13409 13.3368L6.45106 12.9501L6.45072 12.9498L6.13409 13.3368ZM9.86591 13.3368L9.54928 12.9498L9.54894 12.9501L9.86591 13.3368ZM14.9972 6.01074L14.4976 5.99141L14.4972 6.00107V6.01074H14.9972ZM11.207 2.00076L11.1972 1.50086C10.6857 1.51094 10.2336 1.57792 9.80478 1.74331C9.37452 1.90926 8.99617 2.16326 8.61703 2.51043L8.9547 2.87919L9.29237 3.24794C9.60389 2.96268 9.87817 2.7868 10.1646 2.67631C10.4526 2.56526 10.7813 2.50925 11.2169 2.50066L11.207 2.00076ZM8.9547 2.87919L8.61703 2.51043C8.00768 3.06842 7.74862 4.00165 7.62742 4.68513C7.56369 5.0445 7.53202 5.37289 7.51617 5.61102C7.50822 5.7305 7.50418 5.82827 7.50213 5.8971C7.5011 5.93153 7.50057 5.9588 7.5003 5.97798C7.50016 5.98758 7.50008 5.99516 7.50005 6.00061C7.50003 6.00334 7.50001 6.00554 7.50001 6.00719C7.5 6.00802 7.5 6.00871 7.5 6.00926C7.5 6.00954 7.5 6.00978 7.5 6.00999C7.5 6.01009 7.5 6.01022 7.5 6.01027C7.5 6.01039 7.5 6.0105 8 6.01074C8.5 6.01098 8.5 6.01107 8.5 6.01116C8.5 6.01118 8.5 6.01125 8.5 6.01129C8.5 6.01136 8.5 6.01139 8.5 6.0114C8.5 6.0114 8.5 6.01127 8.5 6.01101C8.5 6.01048 8.50001 6.00943 8.50002 6.00786C8.50004 6.00471 8.50009 5.99951 8.50019 5.99235C8.5004 5.97803 8.50082 5.95592 8.50169 5.9269C8.50342 5.86881 8.50692 5.78333 8.51396 5.67744C8.52812 5.46485 8.55632 5.17409 8.61206 4.85973C8.7298 4.19574 8.94809 3.56319 9.29237 3.24794L8.9547 2.87919ZM8 6.01074C8.5 6.01056 8.5 6.01045 8.5 6.01032C8.5 6.01027 8.5 6.01014 8.5 6.01004C8.5 6.00983 8.5 6.00959 8.5 6.00932C8.5 6.00876 8.5 6.00807 8.49999 6.00725C8.49999 6.00559 8.49998 6.0034 8.49996 6.00067C8.49992 5.99521 8.49984 5.98763 8.49971 5.97804C8.49943 5.95885 8.4989 5.93159 8.49788 5.89715C8.49584 5.82832 8.49181 5.73055 8.48387 5.61108C8.46805 5.37295 8.43641 5.04456 8.37272 4.68518C8.25159 4.0017 7.99262 3.06846 7.38329 2.51045L7.04561 2.87919L6.70793 3.24793C7.05216 3.56317 7.27039 4.1957 7.38806 4.85969C7.44378 5.17404 7.47194 5.4648 7.48607 5.67739C7.49311 5.78328 7.4966 5.86876 7.49832 5.92684C7.49918 5.95586 7.4996 5.97797 7.49981 5.99229C7.49991 5.99945 7.49996 6.00466 7.49998 6.0078C7.49999 6.00937 7.5 6.01043 7.5 6.01095C7.5 6.01121 7.5 6.01134 7.5 6.01134C7.5 6.01134 7.5 6.0113 7.5 6.01123C7.5 6.0112 7.5 6.01112 7.5 6.0111C7.5 6.01102 7.5 6.01092 8 6.01074ZM7.04561 2.87919L7.38329 2.51045C7.00411 2.1632 6.6257 1.90918 6.19537 1.74324C5.76651 1.57787 5.31436 1.51091 4.80279 1.50086L4.79296 2.00076L4.78313 2.50066C5.21877 2.50923 5.54759 2.56522 5.83558 2.67627C6.12209 2.78675 6.39639 2.96263 6.70793 3.24793L7.04561 2.87919ZM4.79296 2.00076L4.80279 1.50086C3.44189 1.4741 2.46286 2.07836 1.68657 2.89968L2.04994 3.24313L2.41331 3.58658C3.05736 2.90518 3.7824 2.48099 4.78313 2.50066L4.79296 2.00076ZM2.04994 3.24313L1.68657 2.89968C0.885267 3.74746 0.458428 4.87274 0.503197 6.03007L1.00282 6.01074L1.50245 5.99141C1.46821 5.10623 1.79428 4.24153 2.41331 3.58658L2.04994 3.24313ZM1.00282 6.01074H0.502823C0.502823 7.47244 1.28398 8.9356 2.29658 10.2331C3.31896 11.5431 4.63319 12.7547 5.81746 13.7237L6.13409 13.3368L6.45072 12.9498C5.29442 12.0037 4.04303 10.8455 3.08491 9.61782C2.11702 8.37763 1.50282 7.13533 1.50282 6.01074H1.00282ZM6.13409 13.3368L5.81711 13.7235C6.43007 14.2259 7.2031 14.5 8 14.5V14V13.5C7.43169 13.5 6.88327 13.3044 6.45106 12.9501L6.13409 13.3368ZM8 14V14.5C8.7969 14.5 9.56993 14.2259 10.1829 13.7235L9.86591 13.3368L9.54894 12.9501C9.11673 13.3044 8.56831 13.5 8 13.5V14ZM9.86591 13.3368L10.1825 13.7237C11.3668 12.7547 12.681 11.5431 13.7034 10.2331C14.716 8.9356 15.4972 7.47244 15.4972 6.01074H14.9972H14.4972C14.4972 7.13533 13.883 8.37763 12.9151 9.61782C11.957 10.8455 10.7056 12.0037 9.54928 12.9498L9.86591 13.3368ZM14.9972 6.01074L15.4968 6.03007C15.5416 4.87274 15.1147 3.74746 14.3134 2.89968L13.9501 3.24313L13.5867 3.58658C14.2057 4.24153 14.5318 5.10623 14.4976 5.99141L14.9972 6.01074ZM13.9501 3.24313L14.3134 2.89968C13.5372 2.07838 12.5581 1.47403 11.1972 1.50086L11.207 2.00076L11.2169 2.50066C12.2176 2.48094 12.9426 2.90517 13.5867 3.58658L13.9501 3.24313Z" fill="black"/>
</svg>
