<svg width="16" height="16" viewBox="0 0 16 16" fill="none" xmlns="http://www.w3.org/2000/svg">
<path d="M4.43885 13.501L11.5691 2.49902M4.27236 7.59167C4.80906 7.59167 5.23383 7.36279 5.54666 6.90502C5.8595 6.45072 6.01591 5.82823 6.01591 5.03754C6.01591 4.23645 5.85806 3.61396 5.54236 3.17007C5.22952 2.7227 4.80619 2.49902 4.27236 2.49902C3.7414 2.49902 3.31807 2.7227 3.00237 3.17007C2.68666 3.61396 2.52881 4.23645 2.52881 5.03754C2.52881 5.83517 2.68523 6.45939 2.99806 6.91022C3.31377 7.36452 3.73853 7.59167 4.27236 7.59167ZM11.7961 13.4348C12.3328 13.4348 12.7576 13.2059 13.0704 12.7482C13.3833 12.2939 13.5397 11.6714 13.5397 10.8807C13.5397 10.0796 13.3818 9.45712 13.0661 9.01323C12.7533 8.56587 12.33 8.34218 11.7961 8.34218C11.2652 8.34218 10.8418 8.56587 10.5261 9.01323C10.2104 9.45712 10.0526 10.0796 10.0526 10.8807C10.0526 11.6783 10.209 12.3026 10.5218 12.7534C10.8375 13.2077 11.2623 13.4348 11.7961 13.4348Z" stroke="black" stroke-linecap="round"/>
</svg>
