<svg width="24" height="24" viewBox="0 0 24 24" fill="none" xmlns="http://www.w3.org/2000/svg">
<g clip-path="url(#clip0_47_48009)">
<path d="M11.2401 24.0001C10.9124 23.9989 10.589 23.9265 10.2921 23.7881C9.80706 23.5721 9.41755 23.1865 9.19661 22.7038C8.97568 22.221 8.9385 21.6743 9.09205 21.1661L10.6531 16.0001H6.97505C6.50646 16.0006 6.04424 15.8914 5.62546 15.6812C5.20667 15.4709 4.84296 15.1655 4.56347 14.7894C4.28398 14.4133 4.09648 13.9769 4.01601 13.5153C3.93553 13.0536 3.96432 12.5796 4.10005 12.1311L7.12405 2.13105C7.30838 1.51253 7.68834 0.970475 8.2069 0.58624C8.72547 0.202005 9.35466 -0.00368163 10.0001 4.98893e-05H13.6931C14.1128 0.000401032 14.5262 0.102376 14.898 0.29726C15.2698 0.492143 15.5888 0.774141 15.8279 1.11915C16.067 1.46417 16.219 1.86193 16.2709 2.27847C16.3228 2.695 16.2731 3.11791 16.1261 3.51105L14.4431 8.00005H17.0001C17.5451 8.00001 18.0799 8.14846 18.5469 8.42946C19.0139 8.71046 19.3956 9.11338 19.6509 9.59496C19.9062 10.0765 20.0254 10.6186 19.9959 11.1628C19.9663 11.7071 19.789 12.233 19.4831 12.6841L13.0831 22.9841C12.8852 23.2939 12.6129 23.5492 12.2909 23.7267C11.969 23.9042 11.6077 23.9982 11.2401 24.0001ZM10.0001 2.00005C9.7853 1.99984 9.57619 2.06877 9.40365 2.19664C9.23112 2.32451 9.10433 2.50453 9.04205 2.71005L6.01805 12.7101C5.97278 12.8595 5.96312 13.0174 5.98984 13.1712C6.01656 13.325 6.07893 13.4705 6.17195 13.5959C6.26497 13.7212 6.38606 13.8231 6.52552 13.8933C6.66498 13.9635 6.81893 14 6.97505 14.0001H12.0001C12.1562 14.0001 12.3101 14.0366 12.4496 14.1068C12.589 14.177 12.7101 14.2789 12.8032 14.4042C12.8962 14.5296 12.9585 14.6751 12.9853 14.8289C13.012 14.9827 13.0023 15.1406 12.9571 15.2901L11.0101 21.7321C11.0011 21.7558 10.9971 21.7811 10.9984 21.8064C10.9997 21.8317 11.0062 21.8565 11.0176 21.8791C11.029 21.9018 11.0449 21.9219 11.0645 21.938C11.084 21.9542 11.1067 21.9661 11.1311 21.9731C11.1532 21.9872 11.178 21.9966 11.2039 22.0006C11.2299 22.0046 11.2564 22.0031 11.2817 21.9962C11.3071 21.9893 11.3307 21.9772 11.3511 21.9607C11.3715 21.9441 11.3881 21.9235 11.4001 21.9001L17.8001 11.6001C17.912 11.4483 17.9787 11.2679 17.9925 11.0798C18.0063 10.8917 17.9666 10.7036 17.8781 10.5371C17.796 10.3749 17.6704 10.2387 17.5153 10.1439C17.3602 10.049 17.1818 9.99922 17.0001 10.0001H13.0001C12.8384 10.0002 12.6792 9.96108 12.536 9.88617C12.3928 9.81127 12.2698 9.70276 12.1777 9.56996C12.0856 9.43715 12.0271 9.284 12.0071 9.12361C11.9871 8.96323 12.0063 8.80039 12.0631 8.64905L14.2531 2.80905C14.2867 2.71851 14.298 2.62118 14.286 2.52534C14.2739 2.42949 14.2389 2.33797 14.184 2.25855C14.129 2.17913 14.0557 2.11415 13.9702 2.06915C13.8847 2.02414 13.7896 2.00044 13.6931 2.00005H10.0001Z" fill="#171C26" fill-opacity="0.45"/>
</g>
<defs>
<clipPath id="clip0_47_48009">
<rect width="24" height="24" fill="white"/>
</clipPath>
</defs>
</svg>
