<svg width="16" height="16" viewBox="0 0 16 16" fill="none" xmlns="http://www.w3.org/2000/svg">
<path fill-rule="evenodd" clip-rule="evenodd" d="M0 3.25C0 2.83579 0.335786 2.5 0.75 2.5H15.25C15.6642 2.5 16 2.83579 16 3.25C16 3.66421 15.6642 4 15.25 4H0.75C0.335786 4 0 3.66421 0 3.25ZM0 8.25C0 7.83579 0.335786 7.5 0.75 7.5H15.25C15.6642 7.5 16 7.83579 16 8.25C16 8.66421 15.6642 9 15.25 9H0.75C0.335786 9 0 8.66421 0 8.25ZM0.75 12C0.335786 12 0 12.3358 0 12.75C0 13.1642 0.335786 13.5 0.75 13.5H15.25C15.6642 13.5 16 13.1642 16 12.75C16 12.3358 15.6642 12 15.25 12H0.75Z" fill="#1D2026"/>
</svg>
